<mxfile host="app.diagrams.net" modified="2023-12-28T06:04:03.530Z" agent="Mozilla/5.0 (Macintosh; Intel Mac OS X 10_15_7) AppleWebKit/537.36 (KHTML, like Gecko) Chrome/120.0.0.0 Safari/537.36" version="22.1.15" etag="zuIBI-MxYX18IMCl-dU2" type="github">
  <diagram name="第 1 页" id="Q_Wd2wQ4jvAic-b9EHcg">
    <mxGraphModel>
      <root>
        <mxCell id="0" />
        <mxCell id="1" parent="0" />
      </root>
    </mxGraphModel>
  </diagram>
</mxfile>
